<?xml version="1.0" encoding="utf-8"?>
<!-- Generator: Adobe Illustrator 27.4.1, SVG Export Plug-In . SVG Version: 6.00 Build 0)  -->
<svg version="1.1" id="Layer_1" xmlns="http://www.w3.org/2000/svg" xmlns:xlink="http://www.w3.org/1999/xlink" x="0px" y="0px"
	 viewBox="0 0 473.72 133.51" style="enable-background:new 0 0 473.72 133.51;" xml:space="preserve">
<style type="text/css">
	
		.st0{clip-path:url(#SVGID_00000076564347147995910790000013560939777143857575_);fill:url(#SVGID_00000032607082575904613160000006950787499974484099_);}
	
		.st1{clip-path:url(#SVGID_00000086661725426831380050000004545703892460437652_);fill:url(#SVGID_00000039125308454868771350000015791597419820490904_);}
	
		.st2{clip-path:url(#SVGID_00000032607637140256917010000008434458353263876524_);fill:url(#SVGID_00000149350443659790624180000014301770402981153162_);}
	.st3{fill:#230C80;}
</style>
<g>
	<g>
		<g>
			<defs>
				<path id="SVGID_1_" d="M171.32,70.4V41c0-0.01,0-0.01,0-0.02c0-6.29-5.08-11.39-11.35-11.44l0,0c-0.03,0-0.06,0-0.08,0
					c0,0,0,0-0.01,0l0,0l0,0l0,0l0,0c-3.53-0.06-8.46-0.87-11.96-4.38c-3.11-3.11-4.13-8.3-4.4-12.63l-0.01,0.02
					c-0.01-0.1-0.01-0.21-0.02-0.31c-0.01-0.07,0-0.14-0.01-0.21c-0.59-5.77-5.46-10.27-11.38-10.27H40.6
					c-0.39,0-0.77,0.02-1.16,0.06c-0.13,0.01-0.26,0.04-0.39,0.06c-0.24,0.03-0.48,0.06-0.72,0.11C38.16,2.02,38,2.07,37.84,2.11
					c-0.2,0.05-0.4,0.09-0.59,0.15c-0.17,0.05-0.32,0.11-0.49,0.17c-0.19,0.07-0.38,0.13-0.57,0.21c-0.15,0.06-0.3,0.14-0.45,0.21
					c-0.19,0.09-0.38,0.17-0.57,0.27c-0.14,0.08-0.28,0.16-0.41,0.24c-0.18,0.11-0.37,0.21-0.55,0.33c-0.15,0.1-0.29,0.21-0.43,0.32
					c-0.15,0.11-0.31,0.22-0.46,0.35c-0.25,0.2-0.48,0.42-0.7,0.64c-0.04,0.04-0.09,0.08-0.13,0.12s-0.07,0.08-0.1,0.11
					c-0.23,0.23-0.45,0.47-0.66,0.72c-0.12,0.14-0.22,0.3-0.33,0.44c-0.11,0.15-0.23,0.3-0.33,0.45c-0.11,0.17-0.21,0.35-0.32,0.52
					c-0.09,0.15-0.18,0.29-0.26,0.44c-0.09,0.18-0.17,0.36-0.26,0.54c-0.08,0.16-0.15,0.32-0.22,0.48
					c-0.07,0.17-0.13,0.35-0.19,0.53c-0.06,0.18-0.13,0.35-0.19,0.53c-0.05,0.18-0.09,0.36-0.14,0.53c-0.05,0.18-0.1,0.37-0.13,0.55
					c-0.04,0.21-0.06,0.41-0.09,0.62c-0.02,0.16-0.06,0.32-0.07,0.49c-0.02,0.16-0.02,0.32-0.03,0.48l-0.01-0.01
					c-0.26,4.32-1.29,9.52-4.4,12.63c-3.51,3.51-8.43,4.32-11.96,4.38l0,0l0,0l0,0c0,0,0,0-0.01,0c-0.03,0-0.05,0-0.08,0l0,0
					c-0.35,0-0.7,0.02-1.04,0.05c-0.17,0.02-0.34,0.05-0.51,0.08c-0.2,0.03-0.4,0.05-0.59,0.09c-0.2,0.04-0.39,0.09-0.58,0.14
					c-0.17,0.04-0.34,0.08-0.51,0.13c-0.19,0.06-0.37,0.13-0.56,0.19c-0.17,0.06-0.34,0.11-0.5,0.18c-0.17,0.07-0.33,0.16-0.5,0.24
					c-0.17,0.08-0.34,0.15-0.51,0.24c-0.16,0.09-0.32,0.19-0.47,0.28c-0.16,0.1-0.32,0.19-0.48,0.29c-0.18,0.12-0.34,0.25-0.51,0.38
					c-0.13,0.1-0.26,0.19-0.38,0.29c-0.59,0.48-1.12,1.02-1.6,1.6c-0.1,0.12-0.19,0.26-0.29,0.38c-0.13,0.17-0.26,0.34-0.38,0.52
					c-0.11,0.16-0.2,0.32-0.29,0.48s-0.19,0.31-0.28,0.48s-0.16,0.34-0.24,0.51s-0.16,0.34-0.24,0.51c-0.07,0.17-0.12,0.33-0.18,0.5
					C2,37.3,1.93,37.48,1.88,37.67c-0.05,0.17-0.09,0.34-0.13,0.51c-0.05,0.19-0.1,0.38-0.14,0.58c-0.07,0.18-0.09,0.38-0.12,0.58
					c-0.02,0.17-0.06,0.34-0.07,0.51c-0.04,0.37-0.06,0.75-0.06,1.13l0,0l0,0l0,0v29.39c0,0.01,0,0.01,0,0.02
					c0,6.29,5.08,11.39,11.35,11.44l0,0c0.03,0,0.06,0,0.08,0l0,0l0,0l0,0l0,0c3.53,0.06,8.46,0.87,11.96,4.38
					c3.05,3.05,4.09,8.09,4.38,12.36v29.25c0,3.71,4.67,5.34,6.98,2.45l16.53-20.67h79.42c0.01,0,0.01,0,0.02,0
					c6.1,0,11.07-4.78,11.41-10.79l0.01,0.02c0.26-4.32,1.29-9.52,4.4-12.63c3.51-3.51,8.43-4.32,11.96-4.38l0,0l0,0l0,0
					c0,0,0,0,0.01,0c0.03,0,0.06,0,0.08,0l0,0c0.31,0,0.62-0.02,0.93-0.05c0.05,0,0.11,0,0.16-0.01
					C166.82,81.19,171.32,76.32,171.32,70.4L171.32,70.4L171.32,70.4L171.32,70.4z M144.06,82.36c-3.56,3.56-8.61,4.34-12.16,4.38
					l0,0H40.78l0,0c-3.55-0.04-8.61-0.81-12.16-4.38c-2.89-2.89-4-7.91-4.38-12.35V41.38c0.37-4.44,1.48-9.47,4.38-12.36
					c3.56-3.56,8.61-4.34,12.16-4.38l0,0h91.12l0,0c3.55,0.04,8.61,0.81,12.16,4.38c2.9,2.9,4,7.91,4.38,12.35v28.62
					C148.07,74.44,146.96,79.46,144.06,82.36z"/>
			</defs>
			<clipPath id="SVGID_00000044887755357188441530000010458517638017377695_">
				<use xlink:href="#SVGID_1_"  style="overflow:visible;"/>
			</clipPath>
			
				<linearGradient id="SVGID_00000092445161856077808900000000944109609292099459_" gradientUnits="userSpaceOnUse" x1="14.5824" y1="-17.8319" x2="158.4552" y2="172.6718" gradientTransform="matrix(1 0 0 -1 0 136)">
				<stop  offset="0.0319" style="stop-color:#FF46D7"/>
				<stop  offset="0.1565" style="stop-color:#E658FE"/>
				<stop  offset="0.3012" style="stop-color:#C040FF"/>
				<stop  offset="0.5414" style="stop-color:#A143EF"/>
				<stop  offset="0.755" style="stop-color:#6344CD"/>
				<stop  offset="0.8505" style="stop-color:#4747BB"/>
				<stop  offset="0.984" style="stop-color:#4786C9"/>
			</linearGradient>
			
				<rect x="-0.21" y="-27.4" style="clip-path:url(#SVGID_00000044887755357188441530000010458517638017377695_);fill:url(#SVGID_00000092445161856077808900000000944109609292099459_);" width="172.82" height="172.82"/>
		</g>
		<g>
			<defs>
				<path id="SVGID_00000026129530107635515170000014519449358293694654_" d="M61.01,38.36L61.01,38.36
					c-6.32,0-11.44,5.12-11.44,11.44v11.44c0,6.32,5.12,11.44,11.44,11.44l0,0c6.32,0,11.44-5.12,11.44-11.44V49.8
					C72.45,43.48,67.33,38.36,61.01,38.36z"/>
			</defs>
			<clipPath id="SVGID_00000033355614650880155140000017235409689559001989_">
				<use xlink:href="#SVGID_00000026129530107635515170000014519449358293694654_"  style="overflow:visible;"/>
			</clipPath>
			
				<linearGradient id="SVGID_00000084515480746092125910000000712301708904493708_" gradientUnits="userSpaceOnUse" x1="14.5824" y1="-17.8319" x2="158.4552" y2="172.6718" gradientTransform="matrix(1 0 0 -1 0 136)">
				<stop  offset="0.0319" style="stop-color:#FF46D7"/>
				<stop  offset="0.1565" style="stop-color:#E658FE"/>
				<stop  offset="0.3012" style="stop-color:#C040FF"/>
				<stop  offset="0.5414" style="stop-color:#A143EF"/>
				<stop  offset="0.755" style="stop-color:#6344CD"/>
				<stop  offset="0.8505" style="stop-color:#4747BB"/>
				<stop  offset="0.984" style="stop-color:#4786C9"/>
			</linearGradient>
			
				<rect x="-0.21" y="-27.4" style="clip-path:url(#SVGID_00000033355614650880155140000017235409689559001989_);fill:url(#SVGID_00000084515480746092125910000000712301708904493708_);" width="172.82" height="172.82"/>
		</g>
		<g>
			<defs>
				<path id="SVGID_00000175315130755559071490000017381261525032371637_" d="M111.67,38.36L111.67,38.36
					c-6.32,0-11.44,5.12-11.44,11.44v11.44c0,6.32,5.12,11.44,11.44,11.44l0,0c6.32,0,11.44-5.12,11.44-11.44V49.8
					C123.11,43.48,117.99,38.36,111.67,38.36z"/>
			</defs>
			<clipPath id="SVGID_00000141434240506031252810000005189208646098539139_">
				<use xlink:href="#SVGID_00000175315130755559071490000017381261525032371637_"  style="overflow:visible;"/>
			</clipPath>
			
				<linearGradient id="SVGID_00000028321061011488449960000010612126442772255161_" gradientUnits="userSpaceOnUse" x1="14.5824" y1="-17.8319" x2="158.4552" y2="172.6718" gradientTransform="matrix(1 0 0 -1 0 136)">
				<stop  offset="0.0319" style="stop-color:#FF46D7"/>
				<stop  offset="0.1565" style="stop-color:#E658FE"/>
				<stop  offset="0.3012" style="stop-color:#C040FF"/>
				<stop  offset="0.5414" style="stop-color:#A143EF"/>
				<stop  offset="0.755" style="stop-color:#6344CD"/>
				<stop  offset="0.8505" style="stop-color:#4747BB"/>
				<stop  offset="0.984" style="stop-color:#4786C9"/>
			</linearGradient>
			
				<rect x="-0.21" y="-27.4" style="clip-path:url(#SVGID_00000141434240506031252810000005189208646098539139_);fill:url(#SVGID_00000028321061011488449960000010612126442772255161_);" width="172.82" height="172.82"/>
		</g>
	</g>
	<path class="st3" d="M226.37,1.66c0,0,23.79,0,35.88,0c16.75,0,31.58,11.5,34.94,27.37c0.57,2.69,0.86,5.32,0.9,7.87
		c0.25,18.35-15.29,35.39-35.86,35.39c-4.52,0.07-18.07,0.02-18.07,0.02l0.1,37.21h-17.89L226.37,1.66L226.37,1.66z M244.16,55.31
		c0,0,12.79,0.02,17.61-0.01c12.44,0,18.57-10.42,18.57-18.72c0-10.02-8.41-18.09-18.08-18.09c-4.65,0-18.1,0-18.1,0L244.16,55.31
		L244.16,55.31z"/>
	<path class="st3" d="M343.46,32.02c22.43-0.07,39.87,17.18,39.91,39.47c0.04,22.35-17.21,39.56-39.71,39.63
		c-22.63,0.06-40.02-17.11-40.03-39.54C303.61,49.3,320.94,32.09,343.46,32.02z M343.53,47.79c-12.87-0.02-22.73,10.17-22.81,23.59
		c-0.08,13.66,9.75,24,22.85,24.01c12.73,0.01,22.59-10.38,22.58-23.82C366.15,58.13,356.33,47.81,343.53,47.79z"/>
	<path class="st3" d="M455.81,82.62c-1.72,5.09-8.01,13.09-21.47,13.09c-12.75,0-22.38-10.86-21.99-21.33c0,0,58.47-0.06,58.54,0
		c3.68-26.4-12.66-42.33-36.06-42.33c-27.98,0-39.69,22.3-39.69,38.73c0,29.04,22.53,40.34,39.14,40.34
		c18.17-0.01,32.16-8.65,38.7-25.08C467.07,84.86,461.72,83.79,455.81,82.62z M434.57,47.62c13.28,0,19.72,8.11,19.39,14.64h-40.03
		C413.93,57.1,422.03,47.62,434.57,47.62z"/>
</g>
</svg>
